HIERARCHY
ROOT Hips
{
    OFFSET   0.000000   0.000000   0.000000
    CHANNELS 6 Xposition Yposition Zposition Zrotation Xrotation Yrotation
    JOINT Chest
    {
        OFFSET   0.000000   8.007240   0.000000
        CHANNELS 3 Zrotation Xrotation Yrotation
        JOINT Chest2
        {
            OFFSET   0.000000  22.077100   0.000000
            CHANNELS 3 Zrotation Xrotation Yrotation
            JOINT Neck
            {
                OFFSET   0.000000  23.254800   0.000000
                CHANNELS 3 Zrotation Xrotation Yrotation
                JOINT Head
                {
                    OFFSET   0.000000  14.370000   1.956600
                    CHANNELS 3 Zrotation Xrotation Yrotation
                    End Site
                    {
                        OFFSET   0.000000  19.566000   0.000000
                    }
                }
            }
            JOINT LeftCollar
            {
                OFFSET   3.911900  19.017000  -0.467064
                CHANNELS 3 Zrotation Xrotation Yrotation
                JOINT LeftShoulder
                {
                    OFFSET  10.383700   0.000000   0.000000
                    CHANNELS 3 Zrotation Xrotation Yrotation
                    JOINT LeftElbow
                    {
                        OFFSET  26.662100   0.001476   0.000517
                        CHANNELS 3 Zrotation Xrotation Yrotation
                        JOINT LeftWrist
                        {
                            OFFSET  28.869000  -0.000025  -0.000106
                            CHANNELS 3 Zrotation Xrotation Yrotation
                            JOINT LeftFinger0
                            {
                                OFFSET   2.044660  -2.323460   3.252850
                                CHANNELS 3 Zrotation Xrotation Yrotation
                                JOINT LeftFinger01
                                {
                                    OFFSET   3.088130   0.000000   0.000000
                                    CHANNELS 3 Zrotation Xrotation Yrotation
                                    JOINT LeftFinger02
                                    {
                                        OFFSET   2.639460   0.000000   0.000000
                                        CHANNELS 3 Zrotation Xrotation Yrotation
                                        End Site
                                        {
                                            OFFSET   2.582190   0.000000   0.000000
                                        }
                                    }
                                }
                            }
                            JOINT LeftFinger1
                            {
                                OFFSET   8.364480   0.000000   3.252850
                                CHANNELS 3 Zrotation Xrotation Yrotation
                                JOINT LeftFinger11
                                {
                                    OFFSET   4.646930   0.000000   0.000000
                                    CHANNELS 3 Zrotation Xrotation Yrotation
                                    JOINT LeftFinger12
                                    {
                                        OFFSET   2.323460   0.000000   0.000000
                                        CHANNELS 3 Zrotation Xrotation Yrotation
                                        End Site
                                        {
                                            OFFSET   2.273050   0.000000   0.000000
                                        }
                                    }
                                }
                            }
                            JOINT LeftFinger2
                            {
                                OFFSET   8.364490   0.000015   1.078090
                                CHANNELS 3 Zrotation Xrotation Yrotation
                                JOINT LeftFinger21
                                {
                                    OFFSET   5.111620   0.000000   0.000000
                                    CHANNELS 3 Zrotation Xrotation Yrotation
                                    JOINT LeftFinger22
                                    {
                                        OFFSET   2.788160   0.000016   0.000000
                                        CHANNELS 3 Zrotation Xrotation Yrotation
                                        End Site
                                        {
                                            OFFSET   2.727660   0.000000   0.000000
                                        }
                                    }
                                }
                            }
                            JOINT LeftFinger3
                            {
                                OFFSET   7.899780   0.000017  -1.078090
                                CHANNELS 3 Zrotation Xrotation Yrotation
                                JOINT LeftFinger31
                                {
                                    OFFSET   4.646930   0.000000   0.000000
                                    CHANNELS 3 Zrotation Xrotation Yrotation
                                    JOINT LeftFinger32
                                    {
                                        OFFSET   2.323470   0.000000   0.000000
                                        CHANNELS 3 Zrotation Xrotation Yrotation
                                        End Site
                                        {
                                            OFFSET   2.273050   0.000000   0.000000
                                        }
                                    }
                                }
                            }
                            JOINT LeftFinger4
                            {
                                OFFSET   7.435090   0.000000  -3.252850
                                CHANNELS 3 Zrotation Xrotation Yrotation
                                JOINT LeftFinger41
                                {
                                    OFFSET   3.717550   0.000000   0.000000
                                    CHANNELS 3 Zrotation Xrotation Yrotation
                                    JOINT LeftFinger42
                                    {
                                        OFFSET   1.858770   0.000000   0.000000
                                        CHANNELS 3 Zrotation Xrotation Yrotation
                                        End Site
                                        {
                                            OFFSET   1.818440   0.000000   0.000000
                                        }
                                    }
                                }
                            }
                        }
                    }
                }
            }
            JOINT RightCollar
            {
                OFFSET  -3.911900  19.017000  -0.467063
                CHANNELS 3 Zrotation Xrotation Yrotation
                JOINT RightShoulder
                {
                    OFFSET -10.383700   0.000019   0.000000
                    CHANNELS 3 Zrotation Xrotation Yrotation
                    JOINT RightElbow
                    {
                        OFFSET -26.662100   0.001175   0.000102
                        CHANNELS 3 Zrotation Xrotation Yrotation
                        JOINT RightWrist
                        {
                            OFFSET -28.869000   0.000016  -0.000079
                            CHANNELS 3 Zrotation Xrotation Yrotation
                            JOINT RightFinger0
                            {
                                OFFSET  -2.044660  -2.323490   3.252850
                                CHANNELS 3 Zrotation Xrotation Yrotation
                                JOINT RightFinger01
                                {
                                    OFFSET  -3.088140   0.000000   0.000000
                                    CHANNELS 3 Zrotation Xrotation Yrotation
                                    JOINT RightFinger02
                                    {
                                        OFFSET  -2.639460   0.000000   0.000000
                                        CHANNELS 3 Zrotation Xrotation Yrotation
                                        End Site
                                        {
                                            OFFSET  -2.582190   0.000000   0.000000
                                        }
                                    }
                                }
                            }
                            JOINT RightFinger1
                            {
                                OFFSET  -8.364480   0.000000   3.252850
                                CHANNELS 3 Zrotation Xrotation Yrotation
                                JOINT RightFinger11
                                {
                                    OFFSET  -4.646930   0.000000   0.000000
                                    CHANNELS 3 Zrotation Xrotation Yrotation
                                    JOINT RightFinger12
                                    {
                                        OFFSET  -2.323470   0.000000   0.000000
                                        CHANNELS 3 Zrotation Xrotation Yrotation
                                        End Site
                                        {
                                            OFFSET  -2.273050   0.000000   0.000000
                                        }
                                    }
                                }
                            }
                            JOINT RightFinger2
                            {
                                OFFSET  -8.364480   0.000000   1.078090
                                CHANNELS 3 Zrotation Xrotation Yrotation
                                JOINT RightFinger21
                                {
                                    OFFSET  -5.111620   0.000000   0.000000
                                    CHANNELS 3 Zrotation Xrotation Yrotation
                                    JOINT RightFinger22
                                    {
                                        OFFSET  -2.788160   0.000000   0.000000
                                        CHANNELS 3 Zrotation Xrotation Yrotation
                                        End Site
                                        {
                                            OFFSET  -2.727660   0.000000   0.000000
                                        }
                                    }
                                }
                            }
                            JOINT RightFinger3
                            {
                                OFFSET  -7.899780   0.000000  -1.078090
                                CHANNELS 3 Zrotation Xrotation Yrotation
                                JOINT RightFinger31
                                {
                                    OFFSET  -4.646930   0.000000   0.000000
                                    CHANNELS 3 Zrotation Xrotation Yrotation
                                    JOINT RightFinger32
                                    {
                                        OFFSET  -2.323470   0.000000   0.000000
                                        CHANNELS 3 Zrotation Xrotation Yrotation
                                        End Site
                                        {
                                            OFFSET  -2.273050   0.000000   0.000000
                                        }
                                    }
                                }
                            }
                            JOINT RightFinger4
                            {
                                OFFSET  -7.435090   0.000000  -3.252850
                                CHANNELS 3 Zrotation Xrotation Yrotation
                                JOINT RightFinger41
                                {
                                    OFFSET  -3.717550   0.000000   0.000000
                                    CHANNELS 3 Zrotation Xrotation Yrotation
                                    JOINT RightFinger42
                                    {
                                        OFFSET  -1.858770   0.000000   0.000000
                                        CHANNELS 3 Zrotation Xrotation Yrotation
                                        End Site
                                        {
                                            OFFSET  -1.818440   0.000000   0.000000
                                        }
                                    }
                                }
                            }
                        }
                    }
                }
            }
        }
    }
    JOINT LeftHip
    {
        OFFSET   9.783040   0.000000   0.000000
        CHANNELS 3 Zrotation Xrotation Yrotation
        JOINT LeftKnee
        {
            OFFSET   0.000032 -41.789100  -0.002222
            CHANNELS 3 Zrotation Xrotation Yrotation
            JOINT LeftAnkle
            {
                OFFSET   0.000087 -41.133200  -0.000135
                CHANNELS 3 Zrotation Xrotation Yrotation
                JOINT LeftToe
                {
                    OFFSET   0.000000  -6.358960  14.674500
                    CHANNELS 3 Zrotation Xrotation Yrotation
                    End Site
                    {
                        OFFSET   0.000000   0.000000   3.913200
                    }
                }
            }
        }
    }
    JOINT RightHip
    {
        OFFSET  -9.783040   0.000000   0.000000
        CHANNELS 3 Zrotation Xrotation Yrotation
        JOINT RightKnee
        {
            OFFSET   0.000047 -41.789100  -0.000896
            CHANNELS 3 Zrotation Xrotation Yrotation
            JOINT RightAnkle
            {
                OFFSET  -0.000117 -41.133300  -0.000248
                CHANNELS 3 Zrotation Xrotation Yrotation
                JOINT RightToe
                {
                    OFFSET   0.000000  -6.358970  14.674500
                    CHANNELS 3 Zrotation Xrotation Yrotation
                    End Site
                    {
                        OFFSET   0.000000   0.000000   3.913200
                    }
                }
            }
        }
    }
}
MOTION
Frames: 5
Frame Time:   0.016667
 -9.730580  88.768100  -2.207690  -1.813410 -17.797100   2.149150   4.765600   8.917230  -0.199198   9.743500  17.785700  -1.180720   1.937780  -1.260460   0.043500   3.187840  -2.547080   0.184845  -7.265500  -1.132210  -4.468820 -70.887000  27.257400 -13.002800  -2.755640  -5.435110  -9.293390   6.943680  -5.912300   9.083810  44.779800  33.196500 -71.658000 -17.276400  -0.005304   0.003012  -3.638220  -0.002851  -0.003055 -32.522600   5.794340  -8.996420 -26.982600   0.001620  -0.004121 -18.887900   0.002685  -0.001153 -28.276600   3.155370  -5.841480 -35.525200   0.003247  -0.001996 -23.659800   0.001546  -0.001035 -28.451300   1.102250  -2.033230 -35.826800   0.003783  -0.001928 -23.860700   0.002293   0.000482 -33.735900   0.522788  -0.782925 -50.609200  -0.004185   0.002561 -33.705700  -0.001818  -0.001440   7.114200  -5.759190  12.632900  37.670700  51.214800  23.348500  -4.889160  10.953200  50.043300  21.230400 -76.348500  49.342600 -47.307000  29.409800  61.552900  10.041800  -0.005396   0.000762   0.020888  -0.002525   0.008368  33.326100   2.168990   3.293750  27.318000   0.002916   0.002772  19.122600   0.001135  -0.000670  28.385000   0.091106   0.167650  34.975000   0.005635   0.000169  23.293400   0.001922  -0.004345  28.294800  -3.762660  -6.950400  36.419300   0.006334   0.000028  24.255300   0.003117  -0.003996  30.301500  -5.744040  -9.723400  46.178800  -0.004235  -0.007573  30.755000   0.003439  -0.002300   5.836310  15.981400   2.466740   4.604810  11.160300  10.039700  -6.762700  -7.371190   0.452846  -0.000000   0.000000   0.000000   7.825220  12.808700  -3.010430   1.620980   8.140900 -13.611700  -5.986420  -5.201890  -4.405350  -0.000000   0.000000   0.000000
 -9.780570  88.759400  -2.157550  -1.809910 -17.764800   2.145580   4.765160   8.901590  -0.191349   9.740090  17.755200  -1.162570   1.926220  -1.250010   0.043237   3.168820  -2.525910   0.208823  -7.287990  -1.132370  -4.472600 -70.933400  27.242300 -12.969700  -2.764900  -5.419610  -9.288910   6.929360  -5.887460   9.050350  44.796700  33.211900 -71.671600 -17.264800  -0.005047   0.003047  -3.632430  -0.002833  -0.003047 -32.510400   5.797010  -9.005420 -26.973200   0.001593  -0.004067 -18.881300   0.002642  -0.001120 -28.276000   3.159160  -5.849160 -35.506900   0.003145  -0.001935 -23.647600   0.001491  -0.001031 -28.447700   1.106310  -2.041040 -35.794900   0.003639  -0.001915 -23.839400   0.002276   0.000525 -33.721100   0.526348  -0.788522 -50.587000  -0.004261   0.002552 -33.691000  -0.001819  -0.001427   7.121320  -5.730070  12.639300  37.526800  51.631500  23.143600  -4.797640  10.885300  50.059000  22.542900 -76.310600  49.918300 -47.159700  29.395200  61.753800  10.048800  -0.005431   0.000807   0.024401  -0.002519   0.008490  33.380000   2.144910   3.251100  27.360800   0.002913   0.002783  19.152500   0.001137  -0.000668  28.394700   0.119093   0.219371  35.065000   0.005720   0.000116  23.353300   0.002006  -0.004397  28.296300  -3.772990  -6.968710  36.451500   0.006342   0.000858  24.276700   0.003281  -0.003997  30.056600  -5.778040  -9.865180  45.833900  -0.003988  -0.007434  30.525300   0.003571  -0.002241   5.861720  15.981700   2.471270   4.601200  11.169600  10.037900  -6.783350  -7.398310   0.446148  -0.000000   0.000000   0.000000   7.852140  12.809900  -3.021350   1.633890   8.137710 -13.600900  -6.022840  -5.219670  -4.408310   0.000000   0.000000  -0.000000
 -9.829800  88.750700  -2.105690  -1.808470 -17.730500   2.137990   4.761920   8.881750  -0.188857   9.731560  17.715800  -1.153740   1.919070  -1.237420   0.042941   3.156920  -2.500620   0.255859  -7.298450  -1.121090  -4.464500 -70.991900  27.204400 -12.924400  -2.769000  -5.376730  -9.299370   6.936850  -5.862020   9.024350  44.818000  33.220800 -71.665600 -17.258100  -0.004766   0.003074  -3.629050  -0.002812  -0.003048 -32.506100   5.791270  -8.998260 -26.969500   0.001566  -0.004015 -18.878700   0.002603  -0.001081 -28.276800   3.156000  -5.843850 -35.479400   0.003041  -0.001885 -23.629300   0.001438  -0.001021 -28.444500   1.101150  -2.031750 -35.759800   0.003495  -0.001908 -23.816000   0.002261   0.000574 -33.700300   0.530763  -0.795946 -50.555900  -0.004337   0.002547 -33.670300  -0.001817  -0.001418   7.111830  -5.689850  12.628100  37.344000  52.020100  23.038100  -4.796510  10.908800  50.135900  23.673700 -76.186900  50.384200 -47.048700  29.376600  61.879100   9.670230  -0.005484   0.000857  -0.164886  -0.002509   0.008618  33.376800   2.154290   3.267120  27.359000   0.002923   0.002791  19.151200   0.001135  -0.000669  28.393000   0.188339   0.348097  35.055100   0.005808   0.000162  23.346700   0.002100  -0.004446  28.293700  -3.747180  -6.922610  36.383100   0.006359   0.001289  24.231200   0.003438  -0.003994  29.901500  -5.761830  -9.891390  45.598800  -0.003708  -0.007299  30.368800   0.003699  -0.002177   5.892560  15.979500   2.470770   4.596800  11.182000  10.036000  -6.798830  -7.423970   0.448118   0.000000   0.000000  -0.000000   7.877400  12.808400  -3.039200   1.641120   8.138230 -13.570900  -6.047620  -5.243630  -4.419350   0.000000   0.000000   0.000000
 -9.876540  88.742600  -2.053740  -1.804810 -17.694000   2.132280   4.755760   8.860200  -0.188492   9.718540  17.672800  -1.151240   1.913090  -1.224090   0.042648   3.146940  -2.473830   0.311760  -7.305690  -1.101460  -4.456400 -71.053100  27.158300 -12.875000  -2.770180  -5.324090  -9.311350   6.955050  -5.846730   9.004800  44.840400  33.226700 -71.661800 -17.255000  -0.004483   0.003100  -3.627500  -0.002793  -0.003054 -32.507000   5.780240  -8.981070 -26.968400   0.001538  -0.003963 -18.877900   0.002566  -0.001043 -28.278700   3.147460  -5.828470 -35.461100   0.002935  -0.001838 -23.617100   0.001387  -0.001011 -28.442000   1.089430  -2.010340 -35.738100   0.003349  -0.001903 -23.801600   0.002246   0.000623 -33.686600   0.534923  -0.800766 -50.535500  -0.004413   0.002541 -33.656700  -0.001814  -0.001410   7.101340  -5.648070  12.610400  37.121500  52.382300  23.000500  -4.798370  10.957000  50.233000  24.845900 -76.033300  50.942600 -46.999000  29.368200  61.934800   9.141560  -0.005537   0.000898  -0.429212  -0.002502   0.008749  33.361400   2.163670   3.283140  27.346500   0.002938   0.002797  19.142500   0.001132  -0.000670  28.390200   0.243348   0.450201  35.034800   0.005899   0.000245  23.333200   0.002197  -0.004494  28.287900  -3.721360  -6.876520  36.282700   0.006380   0.001614  24.164300   0.003597  -0.003989  29.823400  -5.745820  -9.906170  45.482700  -0.003422  -0.007162  30.291500   0.003825  -0.002114   5.920240  15.973600   2.470220   4.593230  11.196000  10.033600  -6.813220  -7.449230   0.450087   0.000000   0.000000   0.000000   7.898980  12.803500  -3.055850   1.648250   8.138990 -13.539400  -6.069800  -5.270040  -4.433560  -0.000000   0.000000   0.000000
 -9.918350  88.736000  -2.003270  -1.793310 -17.654100   2.131680   4.748320   8.839040  -0.190913   9.703050  17.630500  -1.153810   1.903150  -1.210620   0.042359   3.130130  -2.446630   0.368491  -7.318350  -1.082770  -4.463490 -71.114500  27.100900 -12.822700  -2.768060  -5.257350  -9.312290   6.975000  -5.855300   8.996380  44.826700  33.226000 -71.671300 -17.291000  -0.004226   0.003142  -3.645510  -0.002781  -0.003069 -32.533000   5.764840  -8.948110 -26.986900   0.001503  -0.003910 -18.890800   0.002527  -0.001012 -28.282700   3.129130  -5.793510 -35.494100   0.002829  -0.001785 -23.639000   0.001334  -0.001005 -28.442000   1.068330  -1.971170 -35.760500   0.003202  -0.001892 -23.816500   0.002230   0.000665 -33.699100   0.536962  -0.796289 -50.554300  -0.004488   0.002526 -33.669200  -0.001813  -0.001399   7.101250  -5.614960  12.596300  36.846600  52.712600  23.021300  -4.734960  11.002800  50.323000  26.275500 -75.875300  51.808400 -46.957300  29.254500  61.754200   8.958270  -0.005571   0.000916  -0.520848  -0.002501   0.008874  33.304900   2.131240   3.242140  27.298400   0.002948   0.002801  19.108800   0.001142  -0.000669  28.388400   0.248692   0.459855  35.015200   0.005993   0.000324  23.320100   0.002293  -0.004544  28.281800  -3.735070  -6.903540  36.233500   0.006401   0.001996  24.131500   0.003770  -0.003988  29.818400  -5.780970  -9.974790  45.486300  -0.003152  -0.007019  30.293900   0.003955  -0.002055   5.933590  15.964100   2.472910   4.593290  11.211300  10.027900  -6.829940  -7.475420   0.449681   0.000000   0.000000   0.000000   7.912220  12.794000  -3.062670   1.661910   8.138650 -13.519700  -6.097340  -5.297450  -4.453310   0.000000   0.000000   0.000000
